<mxfile host="65bd71144e">
    <diagram id="yaU93MIiMf4wjnDz2oAl" name="Page-1">
        <mxGraphModel dx="1540" dy="1476" grid="1" gridSize="10" guides="1" tooltips="1" connect="1" arrows="1" fold="1" page="1" pageScale="1" pageWidth="1169" pageHeight="827" math="0" shadow="0">
            <root>
                <mxCell id="0"/>
                <mxCell id="1" parent="0"/>
                <mxCell id="4" value="" style="edgeStyle=none;html=1;fontSize=17;entryX=0.5;entryY=0;entryDx=0;entryDy=0;startArrow=classic;startFill=1;endArrow=none;endFill=0;rounded=1;" edge="1" parent="1" source="2" target="10">
                    <mxGeometry relative="1" as="geometry">
                        <mxPoint x="745" y="354" as="targetPoint"/>
                    </mxGeometry>
                </mxCell>
                <mxCell id="7" value="" style="edgeStyle=none;html=1;fontSize=17;startArrow=classic;startFill=1;endArrow=none;endFill=0;exitX=0.5;exitY=1;exitDx=0;exitDy=0;rounded=1;" edge="1" parent="1" source="10" target="6">
                    <mxGeometry relative="1" as="geometry"/>
                </mxCell>
                <mxCell id="22" style="edgeStyle=none;html=1;exitX=1;exitY=0.5;exitDx=0;exitDy=0;entryX=0;entryY=0.5;entryDx=0;entryDy=0;startArrow=classic;startFill=1;endArrow=none;endFill=0;" edge="1" parent="1" source="2" target="19">
                    <mxGeometry relative="1" as="geometry"/>
                </mxCell>
                <mxCell id="2" value="&lt;b&gt;&lt;font style=&quot;font-size: 17px;&quot;&gt;Main&lt;/font&gt;&lt;br&gt;&lt;/b&gt;Execution file containing calls to the rest of the code" style="rounded=1;whiteSpace=wrap;html=1;spacing=10;spacingBottom=0;" vertex="1" parent="1">
                    <mxGeometry x="405" y="54" width="200" height="100" as="geometry"/>
                </mxCell>
                <mxCell id="9" value="" style="edgeStyle=none;html=1;fontSize=17;startArrow=classic;startFill=1;endArrow=none;endFill=0;rounded=1;" edge="1" parent="1" source="6" target="8">
                    <mxGeometry relative="1" as="geometry"/>
                </mxCell>
                <mxCell id="12" value="" style="edgeStyle=none;html=1;fontSize=17;startArrow=classic;startFill=1;endArrow=none;endFill=0;rounded=1;" edge="1" parent="1" source="6" target="11">
                    <mxGeometry relative="1" as="geometry"/>
                </mxCell>
                <mxCell id="23" style="edgeStyle=none;html=1;exitX=1;exitY=0.5;exitDx=0;exitDy=0;entryX=0;entryY=0.5;entryDx=0;entryDy=0;startArrow=classic;startFill=1;endArrow=none;endFill=0;" edge="1" parent="1" source="6" target="19">
                    <mxGeometry relative="1" as="geometry"/>
                </mxCell>
                <mxCell id="6" value="&lt;b&gt;&lt;font style=&quot;font-size: 17px;&quot;&gt;Level&lt;/font&gt;&lt;br&gt;&lt;/b&gt;Responsible for composing the gameplay level using defined entities and assets" style="rounded=1;whiteSpace=wrap;html=1;spacing=10;spacingBottom=0;" vertex="1" parent="1">
                    <mxGeometry x="405" y="354" width="200" height="100" as="geometry"/>
                </mxCell>
                <mxCell id="8" value="&lt;b&gt;&lt;font style=&quot;font-size: 17px;&quot;&gt;Entites&lt;/font&gt;&lt;br&gt;&lt;/b&gt;Loads assets for most entities and handles animation logic" style="rounded=1;whiteSpace=wrap;html=1;spacing=10;spacingBottom=0;" vertex="1" parent="1">
                    <mxGeometry x="525" y="514" width="200" height="100" as="geometry"/>
                </mxCell>
                <mxCell id="20" value="" style="edgeStyle=none;html=1;startArrow=classic;startFill=1;endArrow=none;endFill=0;" edge="1" parent="1" source="10" target="19">
                    <mxGeometry relative="1" as="geometry"/>
                </mxCell>
                <mxCell id="10" value="&lt;b&gt;&lt;font style=&quot;font-size: 17px;&quot;&gt;Level Selector&lt;/font&gt;&lt;br&gt;&lt;/b&gt;Responsible for allowing the player to select points in the game to jump to" style="rounded=1;whiteSpace=wrap;html=1;spacing=10;spacingBottom=0;" vertex="1" parent="1">
                    <mxGeometry x="405" y="194" width="200" height="100" as="geometry"/>
                </mxCell>
                <mxCell id="16" value="" style="edgeStyle=none;html=1;fontSize=17;startArrow=classic;startFill=1;endArrow=none;endFill=0;rounded=1;" edge="1" parent="1" source="11" target="15">
                    <mxGeometry relative="1" as="geometry"/>
                </mxCell>
                <mxCell id="11" value="&lt;b&gt;&lt;font style=&quot;font-size: 17px;&quot;&gt;Player&lt;/font&gt;&lt;br&gt;&lt;/b&gt;Defines the player charactor including user input and movement" style="rounded=1;whiteSpace=wrap;html=1;spacing=10;spacingBottom=0;" vertex="1" parent="1">
                    <mxGeometry x="285" y="514" width="200" height="100" as="geometry"/>
                </mxCell>
                <mxCell id="15" value="&lt;b&gt;&lt;font style=&quot;font-size: 17px;&quot;&gt;Customisation&lt;/font&gt;&lt;br&gt;&lt;/b&gt;Defines all customisable paramators such as controls and volume level" style="rounded=1;whiteSpace=wrap;html=1;spacing=10;spacingBottom=0;" vertex="1" parent="1">
                    <mxGeometry x="285" y="674" width="200" height="100" as="geometry"/>
                </mxCell>
                <mxCell id="19" value="&lt;span style=&quot;font-size: 17px;&quot;&gt;&lt;b&gt;Settings&lt;br&gt;&lt;/b&gt;&lt;/span&gt;Variables useful across most files&lt;br&gt;&amp;nbsp;eg. Screan Dimentions" style="rounded=1;whiteSpace=wrap;html=1;spacing=10;spacingBottom=0;" vertex="1" parent="1">
                    <mxGeometry x="685" y="194" width="200" height="100" as="geometry"/>
                </mxCell>
            </root>
        </mxGraphModel>
    </diagram>
</mxfile>